<?xml version="1.0" encoding="UTF-8"?>
<!DOCTYPE svg PUBLIC "-//W3C//DTD SVG 1.1//EN" "http://www.w3.org/Graphics/SVG/1.1/DTD/svg11.dtd">
<svg xmlns="http://www.w3.org/2000/svg" version="1.1" width="512px" height="512px" style="shape-rendering:geometricPrecision; text-rendering:geometricPrecision; image-rendering:optimizeQuality; fill-rule:evenodd; clip-rule:evenodd" xmlns:xlink="http://www.w3.org/1999/xlink">
<g><path style="opacity:0.97" fill="#000000" d="M 233.5,-0.5 C 248.167,-0.5 262.833,-0.5 277.5,-0.5C 377.766,12.0408 449.266,64.0408 492,155.5C 502.296,180.684 508.796,206.684 511.5,233.5C 511.5,248.167 511.5,262.833 511.5,277.5C 498.959,377.766 446.959,449.266 355.5,492C 330.316,502.296 304.316,508.796 277.5,511.5C 262.833,511.5 248.167,511.5 233.5,511.5C 133.234,498.959 61.734,446.959 19,355.5C 8.70393,330.316 2.20393,304.316 -0.5,277.5C -0.5,262.833 -0.5,248.167 -0.5,233.5C 12.0408,133.234 64.0408,61.734 155.5,19C 180.684,8.70393 206.684,2.20393 233.5,-0.5 Z M 241.5,37.5 C 339.989,36.5784 411.156,79.9118 455,167.5C 483.321,236.633 478.987,303.633 442,368.5C 389.739,446.706 316.572,480.873 222.5,471C 145.27,456.759 89.7703,414.259 56,343.5C 27.6793,274.367 32.0126,207.367 69,142.5C 109.394,79.644 166.894,44.644 241.5,37.5 Z M 311.5,253.5 C 313.527,253.338 315.527,253.505 317.5,254C 316.545,257.099 315.711,260.266 315,263.5C 312.936,264.591 310.769,264.758 308.5,264C 309.69,260.544 310.69,257.044 311.5,253.5 Z"/></g>
<g><path style="opacity:0.959" fill="#000000" d="M 186.5,199.5 C 208.77,196.098 227.603,202.431 243,218.5C 244.753,221.005 246.253,223.671 247.5,226.5C 238.675,233.079 229.675,239.413 220.5,245.5C 212.727,231.962 201.394,227.795 186.5,233C 177.133,239.068 172.799,247.734 173.5,259C 174.104,279.276 184.438,288.61 204.5,287C 211.523,284.475 216.857,279.975 220.5,273.5C 230.166,278.664 239.5,284.331 248.5,290.5C 240.406,305.737 227.74,314.904 210.5,318C 178.547,322.775 155.714,310.609 142,281.5C 131.594,250.387 139.76,225.554 166.5,207C 172.96,203.588 179.627,201.088 186.5,199.5 Z"/></g>
<g><path style="opacity:0.961" fill="#000000" d="M 296.5,199.5 C 305.833,199.5 315.167,199.5 324.5,199.5C 322.167,209.5 319.833,219.5 317.5,229.5C 319.5,229.5 321.5,229.5 323.5,229.5C 325.675,219.8 328.008,210.134 330.5,200.5C 339.81,199.502 349.143,199.168 358.5,199.5C 356.167,209.5 353.833,219.5 351.5,229.5C 358.167,229.5 364.833,229.5 371.5,229.5C 371.5,237.5 371.5,245.5 371.5,253.5C 362.808,253.169 354.141,253.502 345.5,254.5C 344.573,257.713 343.573,260.88 342.5,264C 349.492,264.5 356.492,264.666 363.5,264.5C 363.5,273.167 363.5,281.833 363.5,290.5C 354.475,290.168 345.475,290.502 336.5,291.5C 334.336,300.156 332.169,308.823 330,317.5C 320.56,318.817 311.06,318.817 301.5,317.5C 303.833,308.833 306.167,300.167 308.5,291.5C 306.002,290.062 303.836,290.396 302,292.5C 299.873,300.804 297.873,309.137 296,317.5C 286.56,318.817 277.06,318.817 267.5,317.5C 269.833,308.833 272.167,300.167 274.5,291.5C 268.537,290.504 262.537,290.171 256.5,290.5C 256.5,281.833 256.5,273.167 256.5,264.5C 264.752,264.816 272.919,264.482 281,263.5C 281.457,260.204 282.291,257.037 283.5,254C 277.175,253.5 270.842,253.334 264.5,253.5C 264.5,245.5 264.5,237.5 264.5,229.5C 272.833,229.5 281.167,229.5 289.5,229.5C 291.519,219.425 293.852,209.425 296.5,199.5 Z M 311.5,253.5 C 310.69,257.044 309.69,260.544 308.5,264C 310.769,264.758 312.936,264.591 315,263.5C 315.711,260.266 316.545,257.099 317.5,254C 315.527,253.505 313.527,253.338 311.5,253.5 Z"/></g>
</svg>
