<?xml version="1.0" standalone="no"?>
<!DOCTYPE svg PUBLIC "-//W3C//DTD SVG 20010904//EN"
 "http://www.w3.org/TR/2001/REC-SVG-20010904/DTD/svg10.dtd">
<svg version="1.0" xmlns="http://www.w3.org/2000/svg"
 width="1024.000000pt" height="707.000000pt" viewBox="0 0 1024.000000 707.000000"
 preserveAspectRatio="xMidYMid meet">

<g transform="translate(0.000000,707.000000) scale(0.100000,-0.100000)"
fill="#000000" stroke="none">
<path d="M3570 6343 c-145 -120 -332 -310 -413 -418 -80 -107 -161 -265 -182
-355 -19 -84 -19 -210 0 -285 52 -199 172 -349 550 -685 251 -223 373 -349
448 -462 93 -139 127 -241 127 -380 0 -206 -103 -413 -335 -675 l-47 -52 42
-26 c23 -14 48 -29 55 -31 20 -8 154 191 229 341 97 192 119 276 120 450 1
120 -2 151 -22 215 -65 208 -180 356 -505 652 -236 216 -341 325 -412 433 -92
138 -125 239 -125 382 0 255 149 528 476 872 58 61 104 111 102 111 -1 0 -50
-39 -108 -87z"/>
<path d="M853 6032 l-191 -237 509 -3 c317 -1 509 -6 509 -12 0 -5 -173 -516
-385 -1136 -212 -620 -385 -1131 -385 -1136 0 -4 110 -7 246 -6 l247 3 382
1140 382 1140 395 -4 395 -3 187 241 c102 133 186 244 186 246 0 3 -514 5
-1142 5 l-1143 -1 -192 -237z"/>
<path d="M791 5388 c-74 -195 -691 -1881 -691 -1888 0 -6 81 -10 214 -10 l214
0 36 108 c19 59 158 481 309 937 151 457 277 840 281 853 l7 22 -181 0 c-178
0 -181 0 -189 -22z"/>
<path d="M6570 4346 c0 -21 176 -661 192 -698 25 -58 83 -113 135 -128 25 -8
94 -11 188 -8 246 5 249 10 369 459 46 173 87 329 91 347 l7 33 -68 -3 -67 -3
-78 -293 c-42 -160 -83 -308 -89 -327 -21 -63 -26 -65 -189 -65 -136 0 -149 2
-166 20 -11 13 -51 144 -104 343 l-86 322 -68 3 c-37 2 -67 1 -67 -2z"/>
<path d="M7730 3935 l0 -415 75 0 75 0 0 415 0 415 -75 0 -75 0 0 -415z"/>
<path d="M4425 4321 c-22 -10 -52 -31 -67 -47 -54 -58 -58 -83 -58 -339 0
-256 4 -281 58 -339 61 -65 67 -66 495 -66 l387 0 0 65 0 65 -375 0 -376 0
-24 25 -25 24 0 216 c0 212 5 248 34 267 6 4 147 8 313 8 l302 0 20 -26 c37
-47 17 -145 -34 -164 -15 -6 -136 -10 -281 -10 l-254 0 0 -66 0 -65 288 3 287
3 47 28 c31 18 57 44 75 74 58 100 22 259 -75 328 l-44 30 -326 2 c-302 3
-330 2 -367 -16z"/>
<path d="M5420 3930 l0 -410 75 0 75 0 0 320 c0 307 1 321 20 340 19 19 33 20
338 20 291 0 320 -2 334 -17 36 -41 34 -112 -3 -151 -19 -22 -24 -22 -324 -22
l-305 0 0 -70 0 -70 296 0 c291 0 326 -3 346 -34 4 -6 8 -77 8 -158 l0 -148
75 0 75 0 0 153 c0 144 -2 156 -25 204 l-26 51 23 43 c44 83 22 224 -45 298
-12 13 -40 32 -62 42 -37 17 -73 19 -457 19 l-418 0 0 -410z"/>
<path d="M8175 4328 c-50 -17 -92 -55 -114 -102 -21 -42 -22 -55 -19 -304 l3
-260 30 -43 c17 -23 50 -53 74 -66 44 -23 45 -23 443 -23 l398 0 0 65 0 64
-386 3 -386 3 -19 24 c-17 21 -19 42 -19 247 0 211 1 225 20 244 19 19 33 20
405 20 l385 0 0 70 0 70 -392 -1 c-246 0 -404 -4 -423 -11z"/>
<path d="M9254 4321 c-51 -23 -99 -81 -113 -137 -15 -58 -14 -455 0 -505 16
-52 64 -108 113 -130 38 -17 73 -19 434 -19 l392 0 0 65 0 65 -374 0 c-363 0
-374 1 -400 21 l-26 20 0 230 c0 216 1 230 20 249 19 19 33 20 318 20 163 0
302 -4 308 -8 37 -24 44 -100 14 -149 l-20 -33 -272 -2 -273 -3 -3 -67 -3 -68
273 0 c160 0 289 4 311 11 49 13 105 63 128 114 52 114 -15 293 -124 334 -18
7 -146 11 -345 11 -287 0 -321 -2 -358 -19z"/>
<path d="M3561 2899 c-85 -41 -117 -65 -181 -127 -83 -83 -130 -160 -129 -214
l0 -33 17 25 c95 137 214 262 321 337 113 80 111 80 -28 12z"/>
<path d="M2352 2759 c-72 -22 -116 -89 -137 -209 l-7 -35 41 46 c25 29 60 55
93 69 46 20 64 22 153 17 116 -6 188 -28 340 -105 288 -145 626 -433 787 -672
60 -89 60 -62 -1 65 -148 308 -564 658 -946 795 -74 27 -108 33 -190 36 -55 2
-115 -1 -133 -7z"/>
<path d="M1973 2448 c-130 -134 -276 -373 -334 -548 -47 -145 -65 -358 -40
-472 70 -313 304 -508 718 -600 84 -19 130 -22 328 -22 203 0 242 2 335 22
446 97 775 331 926 657 75 162 111 360 101 544 -6 103 -38 245 -71 321 -15 34
-15 31 -16 -92 0 -224 -34 -379 -119 -553 -112 -227 -305 -399 -555 -496 -301
-116 -692 -102 -982 35 -221 105 -361 246 -432 434 -20 54 -26 90 -29 187 -4
104 -1 133 21 217 27 107 91 248 159 351 25 37 44 67 43 67 -1 0 -25 -24 -53
-52z"/>
</g>
</svg>
